<svg xmlns="http://www.w3.org/2000/svg" viewBox="0 0 240 240" width="240" height="240" preserveAspectRatio="xMidYMid meet" fill="none">
  <defs>
    <path id="topArc2" d="M 30 120 A 90 90 0 0 1 210 120" fill="none"></path>
    <path id="botArc2" d="M 30 120 A 90 90 0 0 0 210 120" fill="none"></path>
  </defs>
  <circle cx="120" cy="120" r="110" stroke="#F6F2EA" stroke-width="2" fill="none"></circle>
  <circle cx="120" cy="120" r="100" stroke="#F6F2EA" stroke-width="1" fill="none" opacity="0.7"></circle>
  <circle cx="120" cy="120" r="74" stroke="#B8893A" stroke-width="1.5" fill="none"></circle>
  <text font-family="&#39;Helvetica Neue&#39;, Arial, sans-serif" font-size="11" font-weight="700" fill="#F6F2EA" letter-spacing="3">
    <textPath href="#topArc2" startOffset="50%" text-anchor="middle">NEVADA FLOORING ASSOCIATION</textPath>
  </text>
  <text font-family="&#39;Helvetica Neue&#39;, Arial, sans-serif" font-size="9" font-weight="600" fill="#B8893A" letter-spacing="4">
    <textPath href="#botArc2" startOffset="50%" text-anchor="middle">★ APPROVED MEMBER ★ EST. 2018 ★</textPath>
  </text>
  <g transform="translate(120 122)">
    <path d="M -32 -34 L 28 -34 L 28 -2 L 24 -2 L 24 22 L 10 22 L 10 32 L 2 32 L 2 40 L -8 40 L -32 -14 Z" stroke="#F6F2EA" stroke-width="1.5" fill="none"></path>
    <text x="0" y="6" text-anchor="middle" font-family="&#39;Helvetica Neue&#39;, Arial Black, sans-serif" font-size="22" font-weight="900" letter-spacing="1" fill="#F6F2EA">NFA</text>
  </g>
  <circle cx="32" cy="120" r="2" fill="#B8893A"></circle>
  <circle cx="208" cy="120" r="2" fill="#B8893A"></circle>
</svg>